{
  "accessors": [
    {
      "bufferView": 2,
      "componentType": 5126,
      "count": 351,
      "max": [
        2.0576000213623047,
        -0.46880000829696655,
        -0.3409999907016754
      ],
      "min": [
        -3.0692999362945557,
        -4.003799915313721,
        -0.49869999289512634
      ],
      "type": "VEC3"
    },
    {
      "bufferView": 2,
      "byteOffset": 4212,
      "componentType": 5126,
      "count": 351,
      "max": [
        0.8592175245285034,
        0.9805229902267456,
        1.0
      ],
      "min": [
        -0.9996697306632996,
        -0.29320278763771057,
        0.0
      ],
      "type": "VEC3"
    },
    {
      "bufferView": 1,
      "componentType": 5126,
      "count": 351,
      "max": [
        0.6902999877929688,
        0.48190000653266907
      ],
      "min": [
        0.07169999927282333,
        0.019999999552965164
      ],
      "type": "VEC2"
    },
    {
      "bufferView": 0,
      "componentType": 5125,
      "count": 483,
      "type": "SCALAR"
    },
    {
      "bufferView": 2,
      "byteOffset": 8424,
      "componentType": 5126,
      "count": 4816,
      "max": [
        1.3884999752044678,
        0.14259999990463257,
        -0.21050000190734863
      ],
      "min": [
        -2.024399995803833,
        -1.4456000328063965,
        -0.34360000491142273
      ],
      "type": "VEC3"
    },
    {
      "bufferView": 2,
      "byteOffset": 66216,
      "componentType": 5126,
      "count": 4816,
      "max": [
        0.9926037192344666,
        0.9865099191665649,
        1.0
      ],
      "min": [
        -0.9929296970367432,
        -0.9952449202537537,
        -1.0
      ],
      "type": "VEC3"
    },
    {
      "bufferView": 1,
      "byteOffset": 2808,
      "componentType": 5126,
      "count": 4816,
      "max": [
        0.9979000091552734,
        0.9994999766349792
      ],
      "min": [
        0.0005000000237487257,
        0.0005000000237487257
      ],
      "type": "VEC2"
    },
    {
      "bufferView": 0,
      "byteOffset": 1932,
      "componentType": 5125,
      "count": 8358,
      "type": "SCALAR"
    },
    {
      "bufferView": 2,
      "byteOffset": 124008,
      "componentType": 5126,
      "count": 6389,
      "max": [
        0.7955999970436096,
        -2.9012999534606934,
        -0.2840999960899353
      ],
      "min": [
        -1.3996000289916992,
        -3.737299919128418,
        -0.38260000944137573
      ],
      "type": "VEC3"
    },
    {
      "bufferView": 2,
      "byteOffset": 200676,
      "componentType": 5126,
      "count": 6389,
      "max": [
        0.999775230884552,
        0.9995068907737732,
        1.0
      ],
      "min": [
        -0.9996972680091858,
        -0.999763548374176,
        -1.0
      ],
      "type": "VEC3"
    },
    {
      "bufferView": 1,
      "byteOffset": 41336,
      "componentType": 5126,
      "count": 6389,
      "max": [
        0.9994999766349792,
        0.9993000030517578
      ],
      "min": [
        0.0008999999845400453,
        0.0005000000237487257
      ],
      "type": "VEC2"
    },
    {
      "bufferView": 0,
      "byteOffset": 35364,
      "componentType": 5125,
      "count": 11568,
      "type": "SCALAR"
    },
    {
      "bufferView": 2,
      "byteOffset": 277344,
      "componentType": 5126,
      "count": 4053,
      "max": [
        0.7771000266075134,
        -0.9603999853134155,
        -0.2840999960899353
      ],
      "min": [
        -1.3996000289916992,
        -3.724900007247925,
        -0.5645999908447266
      ],
      "type": "VEC3"
    },
    {
      "bufferView": 2,
      "byteOffset": 325980,
      "componentType": 5126,
      "count": 4053,
      "max": [
        1.0,
        1.0,
        1.0
      ],
      "min": [
        -1.0,
        -1.0,
        -1.0
      ],
      "type": "VEC3"
    },
    {
      "bufferView": 1,
      "byteOffset": 92448,
      "componentType": 5126,
      "count": 4053,
      "max": [
        0.9987999796867371,
        0.9988999962806702
      ],
      "min": [
        0.0005000000237487257,
        0.0005000000237487257
      ],
      "type": "VEC2"
    },
    {
      "bufferView": 0,
      "byteOffset": 81636,
      "componentType": 5125,
      "count": 9246,
      "type": "SCALAR"
    },
    {
      "bufferView": 2,
      "byteOffset": 374616,
      "componentType": 5126,
      "count": 6083,
      "max": [
        -0.2395000010728836,
        -1.2165000438690186,
        0.2071000039577484
      ],
      "min": [
        -2.305799961090088,
        -2.860300064086914,
        -0.34380000829696655
      ],
      "type": "VEC3"
    },
    {
      "bufferView": 2,
      "byteOffset": 447612,
      "componentType": 5126,
      "count": 6083,
      "max": [
        0.999981164932251,
        0.9997119307518005,
        1.0
      ],
      "min": [
        -0.9998672008514404,
        -0.9985138177871704,
        -1.0
      ],
      "type": "VEC3"
    },
    {
      "bufferView": 1,
      "byteOffset": 124872,
      "componentType": 5126,
      "count": 6083,
      "max": [
        0.9994000196456909,
        0.9994999766349792
      ],
      "min": [
        0.0005000000237487257,
        0.0005000000237487257
      ],
      "type": "VEC2"
    },
    {
      "bufferView": 0,
      "byteOffset": 118620,
      "componentType": 5125,
      "count": 13263,
      "type": "SCALAR"
    },
    {
      "bufferView": 2,
      "byteOffset": 520608,
      "componentType": 5126,
      "count": 4088,
      "max": [
        -0.20909999310970306,
        -1.2165000438690186,
        0.23309999704360962
      ],
      "min": [
        -2.305799961090088,
        -2.860300064086914,
        -0.34380000829696655
      ],
      "type": "VEC3"
    },
    {
      "bufferView": 2,
      "byteOffset": 569664,
      "componentType": 5126,
      "count": 4088,
      "max": [
        0.9999995231628418,
        0.9999510049819946,
        1.0
      ],
      "min": [
        -0.9999449253082275,
        -1.0,
        -1.0
      ],
      "type": "VEC3"
    },
    {
      "bufferView": 1,
      "byteOffset": 173536,
      "componentType": 5126,
      "count": 4088,
      "max": [
        0.9993000030517578,
        0.9994000196456909
      ],
      "min": [
        0.0005000000237487257,
        0.005100000184029341
      ],
      "type": "VEC2"
    },
    {
      "bufferView": 0,
      "byteOffset": 171672,
      "componentType": 5125,
      "count": 7659,
      "type": "SCALAR"
    },
    {
      "bufferView": 2,
      "byteOffset": 618720,
      "componentType": 5126,
      "count": 7214,
      "max": [
        0.9373999834060669,
        -1.2727999687194824,
        0.17649999260902405
      ],
      "min": [
        -0.11569999903440475,
        -3.5215001106262207,
        -0.3472999930381775
      ],
      "type": "VEC3"
    },
    {
      "bufferView": 2,
      "byteOffset": 705288,
      "componentType": 5126,
      "count": 7214,
      "max": [
        0.9999788999557495,
        1.0,
        1.0
      ],
      "min": [
        -0.9999490976333618,
        -1.0,
        -1.0
      ],
      "type": "VEC3"
    },
    {
      "bufferView": 1,
      "byteOffset": 206240,
      "componentType": 5126,
      "count": 7214,
      "max": [
        1.0,
        1.0
      ],
      "min": [
        0.0,
        0.0
      ],
      "type": "VEC2"
    },
    {
      "bufferView": 0,
      "byteOffset": 202308,
      "componentType": 5125,
      "count": 14571,
      "type": "SCALAR"
    },
    {
      "bufferView": 2,
      "byteOffset": 791856,
      "componentType": 5126,
      "count": 6076,
      "max": [
        1.0789999961853027,
        -1.2727999687194824,
        0.17649999260902405
      ],
      "min": [
        -0.11569999903440475,
        -3.521899938583374,
        -0.3472999930381775
      ],
      "type": "VEC3"
    },
    {
      "bufferView": 2,
      "byteOffset": 864768,
      "componentType": 5126,
      "count": 6076,
      "max": [
        0.9998860359191895,
        0.9998860359191895,
        1.0
      ],
      "min": [
        -0.9994454383850098,
        -0.9999898672103882,
        -1.0
      ],
      "type": "VEC3"
    },
    {
      "bufferView": 1,
      "byteOffset": 263952,
      "componentType": 5126,
      "count": 6076,
      "max": [
        1.0,
        1.0
      ],
      "min": [
        0.0,
        0.0
      ],
      "type": "VEC2"
    },
    {
      "bufferView": 0,
      "byteOffset": 260592,
      "componentType": 5125,
      "count": 9789,
      "type": "SCALAR"
    },
    {
      "bufferView": 2,
      "byteOffset": 937680,
      "componentType": 5126,
      "count": 8048,
      "max": [
        0.39649999141693115,
        -1.1225999593734741,
        0.8510000109672546
      ],
      "min": [
        -0.24580000340938568,
        -1.6129000186920166,
        -0.34360000491142273
      ],
      "type": "VEC3"
    },
    {
      "bufferView": 2,
      "byteOffset": 1034256,
      "componentType": 5126,
      "count": 8048,
      "max": [
        1.0,
        1.0,
        1.0
      ],
      "min": [
        -1.0,
        -1.0,
        -1.0
      ],
      "type": "VEC3"
    },
    {
      "bufferView": 1,
      "byteOffset": 312560,
      "componentType": 5126,
      "count": 8048,
      "max": [
        0.9980000257492065,
        0.9980000257492065
      ],
      "min": [
        0.0020000000949949026,
        0.0020000000949949026
      ],
      "type": "VEC2"
    },
    {
      "bufferView": 0,
      "byteOffset": 299748,
      "componentType": 5125,
      "count": 12951,
      "type": "SCALAR"
    },
    {
      "bufferView": 2,
      "byteOffset": 1130832,
      "componentType": 5126,
      "count": 4114,
      "max": [
        0.23000000417232513,
        -1.1225999593734741,
        0.5264000296592712
      ],
      "min": [
        -0.24580000340938568,
        -1.6129000186920166,
        -0.34360000491142273
      ],
      "type": "VEC3"
    },
    {
      "bufferView": 2,
      "byteOffset": 1180200,
      "componentType": 5126,
      "count": 4114,
      "max": [
        0.709303081035614,
        0.708804726600647,
        1.0
      ],
      "min": [
        -0.9999704360961914,
        -0.7092036604881287,
        -1.0
      ],
      "type": "VEC3"
    },
    {
      "bufferView": 1,
      "byteOffset": 376944,
      "componentType": 5126,
      "count": 4114,
      "max": [
        0.9980000257492065,
        0.9976000189781189
      ],
      "min": [
        0.0020000000949949026,
        0.0020000000949949026
      ],
      "type": "VEC2"
    },
    {
      "bufferView": 0,
      "byteOffset": 351552,
      "componentType": 5125,
      "count": 9192,
      "type": "SCALAR"
    },
    {
      "bufferView": 2,
      "byteOffset": 1229568,
      "componentType": 5126,
      "count": 16064,
      "max": [
        0.4284000098705292,
        -1.1125999689102173,
        0.8510000109672546
      ],
      "min": [
        -0.27070000767707825,
        -3.0845000743865967,
        -0.35569998621940613
      ],
      "type": "VEC3"
    },
    {
      "bufferView": 2,
      "byteOffset": 1422336,
      "componentType": 5126,
      "count": 16064,
      "max": [
        0.9999994039535522,
        0.9999979734420776,
        1.0
      ],
      "min": [
        -0.9999979734420776,
        -0.9999979734420776,
        -1.0
      ],
      "type": "VEC3"
    },
    {
      "bufferView": 1,
      "byteOffset": 409856,
      "componentType": 5126,
      "count": 16064,
      "max": [
        0.9980000257492065,
        0.9979000091552734
      ],
      "min": [
        0.0020000000949949026,
        0.0020000000949949026
      ],
      "type": "VEC2"
    },
    {
      "bufferView": 0,
      "byteOffset": 388320,
      "componentType": 5125,
      "count": 24843,
      "type": "SCALAR"
    },
    {
      "bufferView": 2,
      "byteOffset": 1615104,
      "componentType": 5126,
      "count": 1375,
      "max": [
        1.6921000480651855,
        0.5084999799728394,
        -0.34360000491142273
      ],
      "min": [
        -2.864799976348877,
        -3.5994999408721924,
        -0.37070000171661377
      ],
      "type": "VEC3"
    },
    {
      "bufferView": 2,
      "byteOffset": 1631604,
      "componentType": 5126,
      "count": 1375,
      "max": [
        0.9999372959136963,
        0.9995909333229065,
        1.0
      ],
      "min": [
        -0.9995736479759216,
        -0.9999006986618042,
        0.0
      ],
      "type": "VEC3"
    },
    {
      "bufferView": 1,
      "byteOffset": 538368,
      "componentType": 5126,
      "count": 1375,
      "max": [
        0.9800000190734863,
        0.9682000279426575
      ],
      "min": [
        0.019999999552965164,
        0.019999999552965164
      ],
      "type": "VEC2"
    },
    {
      "bufferView": 0,
      "byteOffset": 487692,
      "componentType": 5125,
      "count": 2253,
      "type": "SCALAR"
    }
  ],
  "asset": {
    "extras": {
      "author": "Michael Zhang (https://sketchfab.com/beyond.zht)",
      "license": "CC-BY-4.0 (http://creativecommons.org/licenses/by/4.0/)",
      "source": "https://sketchfab.com/3d-models/lowpoly-cartoon-shanghai-18da454727524cfe9c2b61bc5f7e3c34",
      "title": "LowPoly Cartoon Shanghai"
    },
    "generator": "Sketchfab-12.67.0",
    "version": "2.0"
  },
  "bufferViews": [
    {
      "buffer": 0,
      "byteLength": 496704,
      "name": "floatBufferViews",
      "target": 34963
    },
    {
      "buffer": 0,
      "byteLength": 549368,
      "byteOffset": 496704,
      "byteStride": 8,
      "name": "floatBufferViews",
      "target": 34962
    },
    {
      "buffer": 0,
      "byteLength": 1648104,
      "byteOffset": 1046072,
      "byteStride": 12,
      "name": "floatBufferViews",
      "target": 34962
    }
  ],
  "buffers": [
    {
      "byteLength": 2694176,
      "uri": "scene.bin"
    }
  ],
  "images": [
    {
      "uri": "textures/08___Default_baseColor.png"
    },
    {
      "uri": "textures/08___Default_emissive.png"
    },
    {
      "uri": "textures/BuildingAround_baseColor.png"
    },
    {
      "uri": "textures/CHuan_baseColor.png"
    },
    {
      "uri": "textures/Main_1_baseColor.png"
    },
    {
      "uri": "textures/Main_2_baseColor.png"
    },
    {
      "uri": "textures/Main_3_baseColor.png"
    }
  ],
  "materials": [
    {
      "alphaMode": "BLEND",
      "doubleSided": true,
      "emissiveTexture": {
        "index": 1
      },
      "name": "08___Default",
      "pbrMetallicRoughness": {
        "baseColorTexture": {
          "index": 0
        },
        "metallicFactor": 0.0
      }
    },
    {
      "doubleSided": true,
      "emissiveTexture": {
        "index": 2
      },
      "name": "BuildingAround",
      "pbrMetallicRoughness": {
        "baseColorTexture": {
          "index": 2
        },
        "metallicFactor": 0.0
      }
    },
    {
      "doubleSided": true,
      "emissiveTexture": {
        "index": 3
      },
      "name": "CHuan",
      "pbrMetallicRoughness": {
        "baseColorTexture": {
          "index": 3
        },
        "metallicFactor": 0.0
      }
    },
    {
      "doubleSided": true,
      "emissiveTexture": {
        "index": 4
      },
      "name": "Main_1",
      "pbrMetallicRoughness": {
        "baseColorTexture": {
          "index": 4
        },
        "metallicFactor": 0.0
      }
    },
    {
      "doubleSided": true,
      "emissiveTexture": {
        "index": 5
      },
      "name": "Main_2",
      "pbrMetallicRoughness": {
        "baseColorTexture": {
          "index": 5
        },
        "metallicFactor": 0.0
      }
    },
    {
      "doubleSided": true,
      "emissiveTexture": {
        "index": 6
      },
      "name": "Main_3",
      "pbrMetallicRoughness": {
        "baseColorTexture": {
          "index": 6
        },
        "metallicFactor": 0.0
      }
    },
    {
      "doubleSided": true,
      "emissiveTexture": {
        "index": 1
      },
      "name": "River",
      "pbrMetallicRoughness": {
        "baseColorTexture": {
          "index": 1
        },
        "metallicFactor": 0.0
      }
    }
  ],
  "meshes": [
    {
      "name": "Object_0",
      "primitives": [
        {
          "attributes": {
            "NORMAL": 1,
            "POSITION": 0,
            "TEXCOORD_0": 2
          },
          "indices": 3,
          "material": 0,
          "mode": 4
        }
      ]
    },
    {
      "name": "Object_1",
      "primitives": [
        {
          "attributes": {
            "NORMAL": 5,
            "POSITION": 4,
            "TEXCOORD_0": 6
          },
          "indices": 7,
          "material": 1,
          "mode": 4
        }
      ]
    },
    {
      "name": "Object_2",
      "primitives": [
        {
          "attributes": {
            "NORMAL": 9,
            "POSITION": 8,
            "TEXCOORD_0": 10
          },
          "indices": 11,
          "material": 2,
          "mode": 4
        }
      ]
    },
    {
      "name": "Object_3",
      "primitives": [
        {
          "attributes": {
            "NORMAL": 13,
            "POSITION": 12,
            "TEXCOORD_0": 14
          },
          "indices": 15,
          "material": 2,
          "mode": 4
        }
      ]
    },
    {
      "name": "Object_4",
      "primitives": [
        {
          "attributes": {
            "NORMAL": 17,
            "POSITION": 16,
            "TEXCOORD_0": 18
          },
          "indices": 19,
          "material": 3,
          "mode": 4
        }
      ]
    },
    {
      "name": "Object_5",
      "primitives": [
        {
          "attributes": {
            "NORMAL": 21,
            "POSITION": 20,
            "TEXCOORD_0": 22
          },
          "indices": 23,
          "material": 3,
          "mode": 4
        }
      ]
    },
    {
      "name": "Object_6",
      "primitives": [
        {
          "attributes": {
            "NORMAL": 25,
            "POSITION": 24,
            "TEXCOORD_0": 26
          },
          "indices": 27,
          "material": 4,
          "mode": 4
        }
      ]
    },
    {
      "name": "Object_7",
      "primitives": [
        {
          "attributes": {
            "NORMAL": 29,
            "POSITION": 28,
            "TEXCOORD_0": 30
          },
          "indices": 31,
          "material": 4,
          "mode": 4
        }
      ]
    },
    {
      "name": "Object_8",
      "primitives": [
        {
          "attributes": {
            "NORMAL": 33,
            "POSITION": 32,
            "TEXCOORD_0": 34
          },
          "indices": 35,
          "material": 5,
          "mode": 4
        }
      ]
    },
    {
      "name": "Object_9",
      "primitives": [
        {
          "attributes": {
            "NORMAL": 37,
            "POSITION": 36,
            "TEXCOORD_0": 38
          },
          "indices": 39,
          "material": 5,
          "mode": 4
        }
      ]
    },
    {
      "name": "Object_10",
      "primitives": [
        {
          "attributes": {
            "NORMAL": 41,
            "POSITION": 40,
            "TEXCOORD_0": 42
          },
          "indices": 43,
          "material": 5,
          "mode": 4
        }
      ]
    },
    {
      "name": "Object_11",
      "primitives": [
        {
          "attributes": {
            "NORMAL": 45,
            "POSITION": 44,
            "TEXCOORD_0": 46
          },
          "indices": 47,
          "material": 6,
          "mode": 4
        }
      ]
    }
  ],
  "nodes": [
    {
      "children": [
        1
      ],
      "matrix": [
        1.0,
        0.0,
        0.0,
        0.0,
        0.0,
        2.220446049250313e-16,
        -1.0,
        0.0,
        0.0,
        1.0,
        2.220446049250313e-16,
        0.0,
        0.0,
        0.0,
        0.0,
        1.0
      ],
      "name": "Sketchfab_model"
    },
    {
      "children": [
        2,
        3,
        4,
        5,
        6,
        7,
        8,
        9,
        10,
        11,
        12,
        13
      ],
      "name": "SH-Cartoon.obj.cleaner.materialmerger.gles"
    },
    {
      "mesh": 0,
      "name": "Object_2"
    },
    {
      "mesh": 1,
      "name": "Object_3"
    },
    {
      "mesh": 2,
      "name": "Object_4"
    },
    {
      "mesh": 3,
      "name": "Object_5"
    },
    {
      "mesh": 4,
      "name": "Object_6"
    },
    {
      "mesh": 5,
      "name": "Object_7"
    },
    {
      "mesh": 6,
      "name": "Object_8"
    },
    {
      "mesh": 7,
      "name": "Object_9"
    },
    {
      "mesh": 8,
      "name": "Object_10"
    },
    {
      "mesh": 9,
      "name": "Object_11"
    },
    {
      "mesh": 10,
      "name": "Object_12"
    },
    {
      "mesh": 11,
      "name": "Object_13"
    }
  ],
  "samplers": [
    {
      "magFilter": 9729,
      "minFilter": 9987,
      "wrapS": 10497,
      "wrapT": 10497
    }
  ],
  "scene": 0,
  "scenes": [
    {
      "name": "Sketchfab_Scene",
      "nodes": [
        0
      ]
    }
  ],
  "textures": [
    {
      "sampler": 0,
      "source": 0
    },
    {
      "sampler": 0,
      "source": 1
    },
    {
      "sampler": 0,
      "source": 2
    },
    {
      "sampler": 0,
      "source": 3
    },
    {
      "sampler": 0,
      "source": 4
    },
    {
      "sampler": 0,
      "source": 5
    },
    {
      "sampler": 0,
      "source": 6
    }
  ]
}
